<svg xmlns="http://www.w3.org/2000/svg" xmlns:svg="http://www.w3.org/2000/svg" id="svg2" width="16" height="16" version="1.1"><metadata id="metadata7"/><g id="layer1" transform="translate(135.19709,-917.30808)"><g id="g3025" transform="translate(4.3859153e-4,-3.1569886)"><path id="path3870" d="m -120.61732,929.44308 c 0,2.29064 -2.9089,3.78187 -6.49722,3.78187 -3.58832,0 -6.49722,-1.49123 -6.49722,-3.78187 0,-1.04468 0.60504,-1.63347 1.60364,-2.36272 0.10267,-0.075 -3.10582,-3.36382 -3.10582,-3.36382 l 2.11397,0 c 0,0 2.48364,2.66386 2.7531,2.57353 0.9014,-0.30216 1.92762,-0.47312 3.0164,-0.47312 0.93421,0 1.82238,0.12587 2.62515,0.35248 0.19047,0.0538 3.46021,-2.45289 3.46021,-2.45289 l 1.82716,0 c 0,0 -3.1938,3.15474 -2.9386,3.33804 1.01979,0.73247 1.63923,1.33147 1.63923,2.3885 z" style="fill:#fff;stroke:#000;stroke-width:.16629437;stroke-miterlimit:4;stroke-opacity:1"/><path style="fill:#fff;stroke:#000;stroke-width:.16629437;stroke-miterlimit:4;stroke-opacity:1" id="path3983" d="m -120.61732,929.44308 c 0,2.29064 -2.9089,3.78187 -6.49722,3.78187 -3.58832,0 -6.49722,-1.49123 -6.49722,-3.78187 0,-1.04468 0.60504,-1.63347 1.60364,-2.36272 0.10267,-0.075 -3.10582,-3.36382 -3.10582,-3.36382 l 2.11397,0 c 0,0 2.48364,2.66386 2.7531,2.57353 0.9014,-0.30216 1.92762,-0.47312 3.0164,-0.47312 0.93421,0 1.82238,0.12587 2.62515,0.35248 0.19047,0.0538 3.46021,-2.45289 3.46021,-2.45289 l 1.82716,0 c 0,0 -3.1938,3.15474 -2.9386,3.33804 1.01979,0.73247 1.63923,1.33147 1.63923,2.3885 z"/><path style="fill:#fff;stroke:#000;stroke-width:.13469845;stroke-miterlimit:4;stroke-opacity:1" id="path4099" d="m -121.87105,929.25833 c 0,1.85541 -2.35622,3.06332 -5.26276,3.06332 -2.90653,0 -5.26275,-1.20791 -5.26275,-3.06332 0,-0.84619 0.49009,-1.32311 1.29896,-1.9138 0.0832,-0.0607 -2.51572,-2.7247 -2.51572,-2.7247 l 1.71232,0 c 0,0 2.01174,2.15774 2.23001,2.08457 0.73013,-0.24475 1.56137,-0.38323 2.44328,-0.38323 0.75671,0 1.47613,0.10196 2.12637,0.28551 0.15428,0.0435 2.80277,-1.98685 2.80277,-1.98685 l 1.48,0 c 0,0 -2.58698,2.55535 -2.38026,2.70382 0.82603,0.5933 1.32778,1.07849 1.32778,1.93468 z"/><path style="fill:#fff;stroke:#000;stroke-width:.10910574;stroke-miterlimit:4;stroke-opacity:1" id="path4103" d="m -122.88658,929.10869 c 0,1.50289 -1.90853,2.48128 -4.26283,2.48128 -2.3543,0 -4.26283,-0.97839 -4.26283,-2.48128 0,-0.68542 0.39697,-1.07172 1.05215,-1.55018 0.0674,-0.0492 -2.03773,-2.207 -2.03773,-2.207 l 1.38697,0 c 0,0 1.62952,1.74775 1.80632,1.68849 0.5914,-0.19824 1.26471,-0.31041 1.97905,-0.31041 0.61294,0 1.19567,0.0826 1.72236,0.23127 0.12497,0.0353 2.27024,-1.60935 2.27024,-1.60935 l 1.19881,0 c 0,0 -2.09545,2.06982 -1.92802,2.19009 0.6691,0.48057 1.07551,0.87357 1.07551,1.56709 z"/><path style="fill:#fff;stroke:#000;stroke-width:.08837566;stroke-miterlimit:4;stroke-opacity:1" id="path4107" d="m -123.70916,928.98748 c 0,1.21733 -1.54591,2.00984 -3.45289,2.00984 -1.90698,0 -3.4529,-0.79251 -3.4529,-2.00984 0,-0.55519 0.32155,-0.86809 0.85225,-1.25565 0.0545,-0.0398 -1.65056,-1.78767 -1.65056,-1.78767 l 1.12344,0 c 0,0 1.31991,1.41569 1.46312,1.36769 0.47904,-0.16058 1.02442,-0.25144 1.60304,-0.25144 0.49648,0 0.96849,0.0669 1.39511,0.18733 0.10122,0.0285 1.83889,-1.30358 1.83889,-1.30358 l 0.97104,0 c 0,0 -1.69732,1.67656 -1.5617,1.77397 0.54197,0.38927 0.87116,0.7076 0.87116,1.26935 z"/><path style="fill:#fff;stroke:#000;stroke-width:.07158428;stroke-miterlimit:4;stroke-opacity:1" id="path4111" d="m -124.37545,928.8893 c 0,0.98604 -1.25218,1.62798 -2.79684,1.62798 -1.54465,0 -2.79684,-0.64194 -2.79684,-1.62798 0,-0.4497 0.26045,-0.70315 0.69031,-1.01708 0.0442,-0.0322 -1.33695,-1.44801 -1.33695,-1.44801 l 0.90999,0 c 0,0 1.06913,1.14671 1.18512,1.10782 0.38802,-0.13007 0.82978,-0.20366 1.29846,-0.20366 0.40215,0 0.78447,0.0542 1.13005,0.15174 0.082,0.0231 1.4895,-1.0559 1.4895,-1.0559 l 0.78653,0 c 0,0 -1.37483,1.35802 -1.26496,1.43692 0.43898,0.3153 0.70563,0.57315 0.70563,1.02817 z"/><path id="path4113" d="m -124.33953,928.94344 c 0,0.88744 -1.47894,1.62516 -2.86912,1.62516 -1.39019,0 -2.80514,-0.76972 -2.80514,-1.65716 0,-0.40473 0.39439,-0.72883 0.78128,-1.01136 0.008,-0.005 -1.43925,-1.54203 -1.43925,-1.54203 l -4.44218,-2.64151 2.2654,-0.032 3.00093,2.31474 c 0,0 1.42684,1.63687 1.45742,1.62662 0.34922,-0.11706 0.74681,-0.18329 1.16862,-0.18329 0.36194,0 0.70603,0.0488 1.01703,0.13656 0.0212,0.006 1.53418,-1.50318 1.53418,-1.50318 l 3.5501,-2.35945 1.85979,0 -4.62417,2.73616 c 0,0 -1.24448,1.38634 -1.21795,1.40539 0.39509,0.28377 0.76306,0.67583 0.76306,1.08535 z" style="fill:#fff;stroke:#000;stroke-width:.06442585;stroke-miterlimit:4;stroke-opacity:1"/></g></g></svg>